<svg xmlns="http://www.w3.org/2000/svg" width="24" height="24" viewBox="0 0 24 24" fill="none" stroke="currentColor" stroke-width="2" stroke-linecap="round" stroke-linejoin="round" class="lucide lucide-rocket"><path d="M4.5 16.5c-1.5 1.26-2 5-2 5s3.74-.5 5-2c.71-.84.7-2.3.7-3.26M12 15.5L12 12v3.5c0 .83.67 1.5 1.5 1.5s1.5-.67 1.5-1.5V12l-3-3-3 3v3.5c0 .83.67 1.5 1.5 1.5s1.5-.67 1.5-1.5z"/><path d="M12 12L9 9l3-3 3 3-3 3z"/><path d="M18 2.3c.2.2.5.5.7.7C20.4 4.9 21 7.8 21 11c0 2.5-2 4.5-4.5 4.5S12 13.5 12 11c0-3.2.6-6.1 2.3-7.7.2-.2.5-.5.7-.7z"/></svg>